<?xml version="1.0" encoding="utf-8"?>
<!-- Generator: Adobe Illustrator 19.1.0, SVG Export Plug-In . SVG Version: 6.00 Build 0)  -->
<svg version="1.1" id="Layer_1" xmlns="http://www.w3.org/2000/svg" xmlns:xlink="http://www.w3.org/1999/xlink" x="0px" y="0px"
	 viewBox="0 0 190 119" style="enable-background:new 0 0 190 119;" xml:space="preserve">
<style type="text/css">
	.st0{fill:#404041;}
	.st1{fill:#7AC143;}
	.st2{fill:#009FC2;}
	.st3{fill:#FFC222;}
</style>
<g>
	<path id="XMLID_126_" class="st0" d="M21.3,99.5c0,0.5-0.3,0.8-0.8,0.8h-2.9c-0.5,0-0.8-0.3-0.8-0.8V80.2c0-3-1.6-6-6.7-6
		c-5.2,0-5.6,2.1-5.6,3.8v21.5c0,0.5-0.3,0.8-0.8,0.8H0.8c-0.5,0-0.8-0.3-0.8-0.8v-23c0-1.7,0.5-2.5,2.1-3.3
		c1.6-0.8,4.4-1.5,8.2-1.5c4.8,0,11,1.3,11,8.3V99.5z"/>
	<path id="XMLID_128_" class="st0" d="M35.5,100.9c-5.9,0-11.7-4-11.7-14.7c0-10.1,5.7-14.5,11.7-14.5c6.8,0,10.1,5.4,10.1,10.4
		c0,0.9-0.4,1.1-1.4,1.2L27.9,86c0.2,5.9,2.8,11.2,8.6,11.2c3.7,0,6-3,7.3-5.4c0.3-0.6,0.6-0.9,1.1-0.9c0.6,0,0.9,0.5,0.9,1
		C45.8,94.5,42.7,100.9,35.5,100.9z M41.2,81.4c-0.2-3.7-1.8-7.2-6.1-7.2c-4.9,0-7.1,4.7-7.3,9.5L41.2,81.4z"/>
	<path id="XMLID_131_" class="st0" d="M66.5,100.3h-3c-0.7,0-1-0.3-1.3-0.7l-6.3-10.3h-0.1l-6.6,10.3c-0.3,0.4-0.6,0.7-1.3,0.7h-2.2
		c-0.5,0-0.8-0.3-0.8-0.8c0-0.2,0.1-0.4,0.3-0.6L54,86.3l-8.3-12.5c-0.1-0.2-0.3-0.4-0.3-0.7c0-0.4,0.2-0.7,0.8-0.7h2.9
		c0.7,0,1.1,0.3,1.4,0.7l5.9,9.7h0.1l6.2-9.7c0.3-0.4,0.6-0.7,1.4-0.7h2c0.5,0,0.8,0.3,0.8,0.7c0,0.2-0.1,0.5-0.3,0.7l-8.3,11.9
		L67,98.7c0.2,0.3,0.4,0.6,0.4,0.9C67.3,100,67.1,100.3,66.5,100.3z"/>
	<path id="XMLID_133_" class="st0" d="M76.2,100.8c-2.3,0-6.3-0.9-6.3-7.3V74.9h-5c-0.5,0-0.8-0.2-0.8-0.8v-1c0-0.5,0.2-0.8,0.8-0.8
		h5v-4.4c0-0.5,0.1-0.9,0.5-1.1l2.8-1.7c0.2-0.1,0.3-0.2,0.5-0.2c0.4,0,0.6,0.2,0.6,0.8v6.6h4.8c0.5,0,0.8,0.3,0.8,0.8v1
		c0,0.5-0.2,0.8-0.8,0.8h-4.8v18.6c0,3.9,1.9,4.7,3.5,4.7c0.6,0,0.9-0.2,1.4-0.2c0.8,0,1.1,0.4,1.1,0.9
		C80.4,100,78.7,100.8,76.2,100.8z"/>
	<path id="XMLID_135_" class="st0" d="M103.6,100.3v-5.9c-1.6,3.5-6.2,6.7-11.3,6.7c-8.3,0-13.3-7-13.3-14.9c0-9.6,6.4-15.3,14-15.3
		c5,0,9.1,3.3,10.6,6.7V57.3h2.9v43H103.6z M92.7,73.7C86.3,73.7,82,78.4,82,86c0,6.6,3.5,12.4,10.5,12.4c6.4,0,11.1-5.5,11.1-12.5
		C103.6,79.7,99.2,73.7,92.7,73.7z"/>
	<path id="XMLID_138_" class="st0" d="M124.1,101.1c-8.3,0-15.1-6.2-15.1-15.1S115.8,71,124.1,71c8.3,0,15.1,6.2,15.1,15.1
		S132.4,101.1,124.1,101.1z M124.1,73.7c-6.9,0-12,5.2-12,12.4s5.1,12.4,12,12.4c6.9,0,12-5.3,12-12.4S131,73.7,124.1,73.7z"/>
	<path id="XMLID_141_" class="st0" d="M156.3,101.1c-8.3,0-15.1-6.2-15.1-15.1S148,71,156.3,71c8.3,0,15.1,6.2,15.1,15.1
		S164.7,101.1,156.3,101.1z M156.3,73.7c-6.9,0-12,5.2-12,12.4s5.1,12.4,12,12.4c6.9,0,12-5.3,12-12.4S163.2,73.7,156.3,73.7z"/>
	<path id="XMLID_144_" class="st0" d="M188.2,75.3c-1.2-1.1-2.4-1.8-4.2-1.8c-3.8,0-7.2,5-7.2,9.4v17.3H174V71.8h2.9v4.3
		c1.3-2.8,4-5.1,7.5-5.1c2.3,0,3.9,0.5,5.6,2.1L188.2,75.3z"/>
	<path id="XMLID_3_" class="st1" d="M78.6,40.2c-3.9-1.9-8.4-3.2-13.3-3.8c3.5-2,5.9-6.2,5.9-11.2c0-6.8-4.5-12.3-10.1-12.3
		c-5.6,0-10.1,5.5-10.1,12.3c0,4.6,2.1,8.7,5.2,10.8c-13.5-0.3-24.6-2.8-28.4-10.8c0.6,6.1,5.5,11.5,12.6,14.9
		c5.3,2.6,11.9,4.1,19.1,4.1c15,0,27.6,2.2,31.7,10.8C90.6,49,85.8,43.7,78.6,40.2z"/>
	<path id="XMLID_5_" class="st2" d="M131.2,36c3.1-2.1,5.2-6.1,5.2-10.8c0-6.8-4.5-12.3-10.1-12.3c-5.6,0-10.1,5.5-10.1,12.3
		c0,4.9,2.4,9.2,5.8,11.2c-5,0.6-9.6,1.9-13.5,3.8c-7.2,3.5-12,8.8-12.6,14.9c4.1-8.7,16.8-10.8,31.7-10.8c7.2,0,13.8-1.5,19.1-4.1
		c7.2-3.5,12-8.8,12.6-14.9C155.6,33.2,144.6,35.7,131.2,36z"/>
	<path id="XMLID_4_" class="st3" d="M96.2,17.7c2.9-1.1,5.1-4.5,5.1-8.4c0-4.9-3.3-8.9-7.3-8.9c-4,0-7.3,4-7.3,8.9
		c0,4,2.1,7.3,5.1,8.4c-9.8-0.2-17.8-2-20.6-7.8c0.8,7.7,10.7,13.7,22.8,13.7s22-6,22.8-13.7C114,15.7,105.9,17.5,96.2,17.7z"/>
	<g id="XMLID_45_">
		<path id="XMLID_46_" class="st0" d="M14.8,116c-1.6,0-2.5-1.3-2.5-1.8c0-0.3,0.2-0.5,0.5-0.5c0.3,0,0.4,0.1,0.5,0.4
			c0.2,0.5,0.6,1.2,1.5,1.2c0.9,0,1.4-0.6,1.4-1.4c0-2.2-3.8-1.6-3.8-4.1c0-1.3,1-2.1,2.4-2.1c1.5,0,2.2,1.1,2.2,1.5
			c0,0.3-0.2,0.5-0.5,0.5c-0.2,0-0.4-0.2-0.5-0.3c-0.2-0.5-0.5-1-1.3-1c-0.8,0-1.4,0.5-1.4,1.4c0,1.9,3.8,1.3,3.8,4.1
			C17.3,115.1,16.4,116,14.8,116z"/>
		<path id="XMLID_48_" class="st0" d="M19.8,115.9c-0.5,0-1.3-0.2-1.3-1.5v-3.9h-0.6c-0.1,0-0.2,0-0.2-0.2v-0.2c0-0.1,0-0.2,0.2-0.2
			h0.6v-0.9c0-0.1,0-0.2,0.1-0.2l0.6-0.3c0,0,0.1,0,0.1,0c0.1,0,0.1,0,0.1,0.2v1.4h1c0.1,0,0.2,0.1,0.2,0.2v0.2c0,0.1,0,0.2-0.2,0.2
			h-1v3.9c0,0.8,0.4,1,0.7,1c0.1,0,0.2,0,0.3,0c0.2,0,0.2,0.1,0.2,0.2C20.6,115.8,20.3,115.9,19.8,115.9z"/>
		<path id="XMLID_50_" class="st0" d="M24.3,110.9c-0.5,0-0.4-0.6-1.1-0.6c-0.5,0-0.8,0.2-0.8,0.6v4.6c0,0.1-0.1,0.2-0.2,0.2h-0.6
			c-0.1,0-0.2-0.1-0.2-0.2v-4.8c0-0.4,0.1-0.5,0.4-0.7c0.3-0.2,0.9-0.3,1.5-0.3c0.9,0,1.3,0.3,1.3,0.7
			C24.7,110.8,24.6,110.9,24.3,110.9z"/>
		<path id="XMLID_52_" class="st0" d="M27.6,116c-1.7,0-2.5-1.5-2.5-3.1c0-1.6,0.9-3,2.5-3c1.7,0,2.6,1.4,2.6,3
			C30.1,114.5,29.3,116,27.6,116z M27.5,110.4c-1.1,0-1.5,1.2-1.5,2.4c0,1.2,0.5,2.6,1.6,2.6c1.2,0,1.6-1.2,1.6-2.4
			C29.2,111.7,28.7,110.4,27.5,110.4z"/>
		<path id="XMLID_55_" class="st0" d="M35.6,115.7c0,0.1-0.1,0.2-0.2,0.2h-0.6c-0.1,0-0.2-0.1-0.2-0.2v-4c0-0.6-0.3-1.3-1.4-1.3
			c-1.1,0-1.2,0.4-1.2,0.8v4.5c0,0.1-0.1,0.2-0.2,0.2h-0.6c-0.1,0-0.2-0.1-0.2-0.2v-4.8c0-0.4,0.1-0.5,0.4-0.7
			c0.3-0.2,0.9-0.3,1.7-0.3c1,0,2.3,0.3,2.3,1.7V115.7z"/>
		<path id="XMLID_57_" class="st0" d="M38.2,118.6c-1.4,0-1.6-0.6-1.6-1.5c0-0.7,0.7-1.3,1.1-1.5c-0.5-0.1-0.9-0.3-0.9-0.9
			c0-0.5,0.7-1,0.9-1.2c-0.6-0.3-0.9-1-0.9-1.7c0-1.1,0.8-2,2.1-2c0.8,0,1.2,0.3,1.6,0.3c0.4,0,0.6-0.1,0.8-0.1c0,0,0.1,0,0.1,0
			c0,0,0.1,0,0.1,0.1c0,0.1,0,0.1,0,0.1c0,0.1,0,0.1-0.1,0.1c-0.2,0.1-0.5,0.2-0.9,0.2c0.2,0.3,0.4,0.7,0.4,1.2c0,1.1-0.8,2-2.1,2
			c-0.3,0-0.6,0-0.8-0.1c-0.2,0.1-0.6,0.5-0.6,0.8c0,0.5,0.8,0.5,1.6,0.5c1.2,0,2.6,0.1,2.6,1.4C41.7,117.6,39.9,118.6,38.2,118.6z
			 M38.2,115.6c-0.4,0.2-0.8,0.7-0.8,1.2c0,0.7,0,1.2,1.1,1.2c1,0,2.4-0.7,2.4-1.4C40.8,115.5,39.3,115.7,38.2,115.6z M38.9,110.3
			c-0.8,0-1.3,0.5-1.3,1.3s0.4,1.6,1.3,1.6c0.8,0,1.3-0.5,1.3-1.3C40.2,111.2,39.7,110.3,38.9,110.3z"/>
		<path id="XMLID_61_" class="st0" d="M44.4,116c-1.2,0-2.4-0.8-2.4-3.1c0-2.1,1.2-3,2.5-3c1.4,0,2.1,1.1,2.1,2.2
			c0,0.2-0.1,0.2-0.3,0.3l-3.4,0.6c0,1.2,0.6,2.3,1.8,2.3c0.8,0,1.3-0.6,1.5-1.1c0.1-0.1,0.1-0.2,0.2-0.2c0.1,0,0.2,0.1,0.2,0.2
			C46.6,114.6,45.9,116,44.4,116z M45.6,111.9c0-0.8-0.4-1.5-1.3-1.5c-1,0-1.5,1-1.5,2L45.6,111.9z"/>
		<path id="XMLID_64_" class="st0" d="M50.4,110.9c-0.5,0-0.4-0.6-1.1-0.6c-0.5,0-0.8,0.2-0.8,0.6v4.6c0,0.1-0.1,0.2-0.2,0.2h-0.6
			c-0.1,0-0.2-0.1-0.2-0.2v-4.8c0-0.4,0.1-0.5,0.4-0.7c0.3-0.2,0.9-0.3,1.5-0.3c0.9,0,1.3,0.3,1.3,0.7
			C50.8,110.8,50.7,110.9,50.4,110.9z"/>
		<path id="XMLID_66_" class="st0" d="M58.6,108.5h-2.9v2.8h2.5c0.1,0,0.2,0,0.2,0.2v0.3c0,0.1-0.1,0.2-0.2,0.2h-2.5v3.6
			c0,0.1,0,0.2-0.2,0.2h-0.7c-0.1,0-0.2-0.1-0.2-0.2V108c0-0.1,0.1-0.2,0.2-0.2h3.8c0.1,0,0.2,0.1,0.2,0.2v0.3
			C58.7,108.5,58.7,108.5,58.6,108.5z"/>
		<path id="XMLID_68_" class="st0" d="M63.3,114.7c0,0.5-0.1,0.7-0.4,0.9c-0.2,0.1-0.9,0.3-1.5,0.3c-1.3,0-2.2-0.6-2.2-1.6
			c0-1.5,1.8-1.9,3.2-2.2v-0.8c0-0.6-0.4-1.1-0.9-1.1c-0.7,0-1,0.5-1.2,1c-0.1,0.2-0.2,0.3-0.4,0.3c-0.2,0-0.4-0.1-0.4-0.4
			c0-0.4,0.6-1.4,2.2-1.4c0.9,0,1.7,0.5,1.7,1.6V114.7z M62.4,112.7c-1.2,0.3-2.3,0.6-2.3,1.7c0,0.6,0.4,1.1,1.3,1.1
			c0.5,0,1-0.1,1-0.7V112.7z"/>
		<path id="XMLID_71_" class="st0" d="M71.9,115.8h-0.6c-0.1,0-0.2-0.1-0.2-0.2v-4c0-0.8-0.4-1.3-1.2-1.3c-0.8,0-1.1,0.5-1.1,1.2
			v4.1c0,0.1,0,0.2-0.2,0.2H68c-0.1,0-0.2-0.1-0.2-0.2v-4c0-0.8-0.4-1.3-1.2-1.3c-0.7,0-1.1,0.2-1.1,0.8v4.5c0,0.1,0,0.2-0.2,0.2
			h-0.6c-0.1,0-0.2-0.1-0.2-0.2v-4.8c0-0.4,0.1-0.5,0.4-0.7c0.3-0.2,0.9-0.3,1.6-0.3c0.8,0,1.4,0.3,1.7,0.7c0.3-0.4,0.9-0.7,1.7-0.7
			c0.7,0,2,0.3,2,1.7v4.1C72.1,115.8,72,115.8,71.9,115.8z"/>
		<path id="XMLID_73_" class="st0" d="M74.1,108.8c-0.3,0-0.6-0.2-0.6-0.5c0-0.3,0.2-0.5,0.6-0.5c0.3,0,0.6,0.2,0.6,0.5
			C74.7,108.6,74.4,108.8,74.1,108.8z M74.6,115.7c0,0.1-0.1,0.2-0.2,0.2h-0.6c-0.1,0-0.2-0.1-0.2-0.2v-5.5c0-0.1,0.1-0.2,0.2-0.2
			h0.6c0.1,0,0.2,0.1,0.2,0.2V115.7z"/>
		<path id="XMLID_76_" class="st0" d="M77.2,115.7c0,0.1-0.1,0.2-0.2,0.2h-0.6c-0.1,0-0.2-0.1-0.2-0.2v-8.3c0-0.1,0.1-0.2,0.2-0.2
			h0.6c0.1,0,0.2,0.1,0.2,0.2V115.7z"/>
		<path id="XMLID_78_" class="st0" d="M79.4,108.8c-0.3,0-0.6-0.2-0.6-0.5c0-0.3,0.2-0.5,0.6-0.5s0.6,0.2,0.6,0.5
			C80,108.6,79.8,108.8,79.4,108.8z M79.9,115.7c0,0.1-0.1,0.2-0.2,0.2h-0.6c-0.1,0-0.2-0.1-0.2-0.2v-5.5c0-0.1,0.1-0.2,0.2-0.2h0.6
			c0.1,0,0.2,0.1,0.2,0.2V115.7z"/>
		<path id="XMLID_81_" class="st0" d="M83.7,116c-1.2,0-2.4-0.8-2.4-3.1c0-2.1,1.2-3,2.5-3c1.4,0,2.1,1.1,2.1,2.2
			c0,0.2-0.1,0.2-0.3,0.3l-3.4,0.6c0,1.2,0.6,2.3,1.8,2.3c0.8,0,1.3-0.6,1.5-1.1c0.1-0.1,0.1-0.2,0.2-0.2c0.1,0,0.2,0.1,0.2,0.2
			C85.8,114.6,85.2,116,83.7,116z M84.9,111.9c0-0.8-0.4-1.5-1.3-1.5c-1,0-1.5,1-1.5,2L84.9,111.9z"/>
		<path id="XMLID_84_" class="st0" d="M88.8,116c-1.4,0-2-1-2-1.4c0-0.3,0.2-0.5,0.4-0.5s0.4,0.1,0.5,0.4c0.2,0.5,0.5,0.9,1.1,0.9
			c0.5,0,1-0.4,1-1c0-1.4-2.9-1.2-2.9-2.9c0-1.1,0.8-1.6,1.9-1.6c1.3,0,1.8,0.8,1.8,1.2c0,0.3-0.2,0.4-0.4,0.4
			c-0.2,0-0.4-0.1-0.4-0.3c-0.2-0.4-0.4-0.8-1-0.8c-0.6,0-1,0.3-1,0.9c0,1.4,3,1.1,3,3C90.7,115.3,90,116,88.8,116z"/>
		<path id="XMLID_86_" class="st0" d="M98.5,108.5h-1.9v7.1c0,0.1,0,0.2-0.2,0.2h-0.7c-0.1,0-0.2-0.1-0.2-0.2v-7.1h-1.9
			c-0.1,0-0.2-0.1-0.2-0.2V108c0-0.1,0-0.2,0.2-0.2h4.8c0.1,0,0.2,0.1,0.2,0.2v0.3C98.6,108.5,98.6,108.5,98.5,108.5z"/>
		<path id="XMLID_88_" class="st0" d="M103.9,115.8h-0.6c-0.1,0-0.2-0.1-0.2-0.2v-4c0-0.8-0.6-1.2-1.2-1.2c-0.6,0-1.1,0.2-1.4,0.6
			v4.6c0,0.1-0.1,0.2-0.2,0.2h-0.6c-0.1,0-0.2-0.1-0.2-0.2v-8.3c0-0.1,0-0.2,0.2-0.2h0.6c0.1,0,0.2,0.1,0.2,0.2v3.2
			c0.3-0.4,0.9-0.7,1.6-0.7c1,0,1.9,0.5,1.9,1.7v4.1C104.1,115.8,104,115.8,103.9,115.8z"/>
		<path id="XMLID_90_" class="st0" d="M108.2,110.9c-0.5,0-0.4-0.6-1.1-0.6c-0.5,0-0.8,0.2-0.8,0.6v4.6c0,0.1-0.1,0.2-0.2,0.2h-0.6
			c-0.1,0-0.2-0.1-0.2-0.2v-4.8c0-0.4,0.1-0.5,0.4-0.7c0.3-0.2,0.9-0.3,1.5-0.3c0.9,0,1.3,0.3,1.3,0.7
			C108.6,110.8,108.5,110.9,108.2,110.9z"/>
		<path id="XMLID_92_" class="st0" d="M111.3,116c-1.7,0-2.5-1.5-2.5-3.1c0-1.6,0.9-3,2.5-3c1.7,0,2.6,1.4,2.6,3
			C113.8,114.5,113,116,111.3,116z M111.3,110.4c-1.1,0-1.5,1.2-1.5,2.4c0,1.2,0.5,2.6,1.6,2.6c1.2,0,1.6-1.2,1.6-2.4
			C112.9,111.7,112.4,110.4,111.3,110.4z"/>
		<path id="XMLID_95_" class="st0" d="M118.8,115.6c-0.3,0.2-0.9,0.3-1.8,0.3c-0.7,0-2.1-0.2-2.1-1.7v-4.1c0-0.1,0.1-0.2,0.2-0.2
			h0.6c0.1,0,0.2,0.1,0.2,0.2v4c0,0.8,0.5,1.2,1.2,1.2c1.1,0,1.2-0.4,1.2-0.8v-4.4c0-0.1,0-0.2,0.2-0.2h0.6c0.1,0,0.2,0.1,0.2,0.2
			v4.7C119.2,115.3,119,115.5,118.8,115.6z"/>
		<path id="XMLID_97_" class="st0" d="M121.7,118.6c-1.4,0-1.6-0.6-1.6-1.5c0-0.7,0.7-1.3,1.1-1.5c-0.5-0.1-0.9-0.3-0.9-0.9
			c0-0.5,0.7-1,0.9-1.2c-0.6-0.3-0.9-1-0.9-1.7c0-1.1,0.8-2,2.1-2c0.8,0,1.2,0.3,1.6,0.3c0.4,0,0.6-0.1,0.8-0.1c0,0,0.1,0,0.1,0
			c0,0,0.1,0,0.1,0.1c0,0.1,0,0.1,0,0.1c0,0.1,0,0.1-0.1,0.1c-0.2,0.1-0.5,0.2-0.9,0.2c0.2,0.3,0.4,0.7,0.4,1.2c0,1.1-0.8,2-2.1,2
			c-0.3,0-0.6,0-0.8-0.1c-0.2,0.1-0.6,0.5-0.6,0.8c0,0.5,0.8,0.5,1.6,0.5c1.2,0,2.6,0.1,2.6,1.4
			C125.3,117.6,123.4,118.6,121.7,118.6z M121.7,115.6c-0.4,0.2-0.8,0.7-0.8,1.2c0,0.7,0,1.2,1.1,1.2c1,0,2.4-0.7,2.4-1.4
			C124.4,115.5,122.9,115.7,121.7,115.6z M122.5,110.3c-0.8,0-1.3,0.5-1.3,1.3s0.4,1.6,1.3,1.6c0.8,0,1.3-0.5,1.3-1.3
			C123.7,111.2,123.3,110.3,122.5,110.3z"/>
		<path id="XMLID_101_" class="st0" d="M130.4,115.8h-0.6c-0.1,0-0.2-0.1-0.2-0.2v-4c0-0.8-0.6-1.2-1.2-1.2c-0.6,0-1.1,0.2-1.4,0.6
			v4.6c0,0.1-0.1,0.2-0.2,0.2h-0.6c-0.1,0-0.2-0.1-0.2-0.2v-8.3c0-0.1,0-0.2,0.2-0.2h0.6c0.1,0,0.2,0.1,0.2,0.2v3.2
			c0.4-0.4,0.9-0.7,1.6-0.7c1,0,1.9,0.5,1.9,1.7v4.1C130.6,115.8,130.5,115.8,130.4,115.8z"/>
		<path id="XMLID_103_" class="st0" d="M139.1,115.8h-3.8c-0.1,0-0.2-0.1-0.2-0.2V108c0-0.1,0.1-0.2,0.2-0.2h3.8
			c0.1,0,0.2,0.1,0.2,0.2v0.3c0,0.1-0.1,0.2-0.2,0.2h-2.9v2.8h2.5c0.1,0,0.2,0,0.2,0.2v0.3c0,0.1-0.1,0.2-0.2,0.2h-2.5v3.1h2.9
			c0.1,0,0.2,0.1,0.2,0.2v0.4C139.2,115.8,139.2,115.8,139.1,115.8z"/>
		<path id="XMLID_105_" class="st0" d="M144.6,114.8c0,0.4-0.1,0.6-0.4,0.8c-0.3,0.2-0.9,0.4-1.6,0.4c-2,0-2.8-1.4-2.8-2.9
			c0-1.5,0.8-3.2,2.7-3.2c0.6,0,1,0.2,1.2,0.3v-2.8c0-0.1,0.1-0.2,0.2-0.2h0.6c0.1,0,0.2,0.1,0.2,0.2V114.8z M143.7,110.7
			c-0.2-0.2-0.5-0.3-1.1-0.3c-1.1,0-1.8,1.1-1.8,2.6c0,1.7,1,2.4,1.9,2.4c0.7,0,1-0.2,1-0.7V110.7z"/>
		<path id="XMLID_108_" class="st0" d="M149.8,115.6c-0.3,0.2-0.9,0.3-1.8,0.3c-0.7,0-2.1-0.2-2.1-1.7v-4.1c0-0.1,0.1-0.2,0.2-0.2
			h0.6c0.1,0,0.2,0.1,0.2,0.2v4c0,0.8,0.5,1.2,1.2,1.2c1.1,0,1.2-0.4,1.2-0.8v-4.4c0-0.1,0-0.2,0.2-0.2h0.6c0.1,0,0.2,0.1,0.2,0.2
			v4.7C150.2,115.3,150,115.5,149.8,115.6z"/>
		<path id="XMLID_110_" class="st0" d="M153.6,116c-1.2,0-2.4-0.8-2.4-3.1c0-2.1,1.1-3.1,2.4-3.1c1.4,0,2,1,2,1.5
			c0,0.3-0.2,0.5-0.5,0.5c-0.2,0-0.4-0.1-0.4-0.4c-0.1-0.3-0.4-1-1.2-1c-0.8,0-1.5,0.8-1.5,2.3c0,1.3,0.6,2.5,1.8,2.5
			c0.8,0,1.2-0.6,1.4-1.1c0-0.1,0.1-0.2,0.2-0.2c0.1,0,0.2,0.1,0.2,0.2C155.7,114.6,155.1,116,153.6,116z"/>
		<path id="XMLID_112_" class="st0" d="M160.5,114.7c0,0.5-0.1,0.7-0.4,0.9c-0.2,0.1-0.9,0.3-1.5,0.3c-1.3,0-2.2-0.6-2.2-1.6
			c0-1.5,1.8-1.9,3.2-2.2v-0.8c0-0.6-0.4-1.1-0.9-1.1c-0.7,0-1,0.5-1.2,1c-0.1,0.2-0.2,0.3-0.4,0.3c-0.2,0-0.4-0.1-0.4-0.4
			c0-0.4,0.6-1.4,2.2-1.4c0.9,0,1.7,0.5,1.7,1.6V114.7z M159.6,112.7c-1.2,0.3-2.3,0.6-2.3,1.7c0,0.6,0.4,1.1,1.3,1.1
			c0.5,0,1-0.1,1-0.7V112.7z"/>
		<path id="XMLID_115_" class="st0" d="M163.4,115.9c-0.5,0-1.3-0.2-1.3-1.5v-3.9h-0.6c-0.1,0-0.2,0-0.2-0.2v-0.2
			c0-0.1,0-0.2,0.2-0.2h0.6v-0.9c0-0.1,0-0.2,0.1-0.2l0.6-0.3c0,0,0.1,0,0.1,0c0.1,0,0.1,0,0.1,0.2v1.4h1c0.1,0,0.2,0.1,0.2,0.2v0.2
			c0,0.1,0,0.2-0.2,0.2h-1v3.9c0,0.8,0.4,1,0.7,1c0.1,0,0.2,0,0.3,0c0.2,0,0.2,0.1,0.2,0.2C164.2,115.8,163.9,115.9,163.4,115.9z"/>
		<path id="XMLID_117_" class="st0" d="M165.6,108.8c-0.3,0-0.6-0.2-0.6-0.5c0-0.3,0.2-0.5,0.6-0.5c0.3,0,0.6,0.2,0.6,0.5
			C166.2,108.6,165.9,108.8,165.6,108.8z M166.1,115.7c0,0.1-0.1,0.2-0.2,0.2h-0.6c-0.1,0-0.2-0.1-0.2-0.2v-5.5
			c0-0.1,0.1-0.2,0.2-0.2h0.6c0.1,0,0.2,0.1,0.2,0.2V115.7z"/>
		<path id="XMLID_120_" class="st0" d="M169.7,116c-1.7,0-2.5-1.5-2.5-3.1c0-1.6,0.9-3,2.5-3c1.7,0,2.6,1.4,2.6,3
			C172.2,114.5,171.4,116,169.7,116z M169.7,110.4c-1.1,0-1.5,1.2-1.5,2.4c0,1.2,0.5,2.6,1.6,2.6c1.2,0,1.6-1.2,1.6-2.4
			C171.3,111.7,170.8,110.4,169.7,110.4z"/>
		<path id="XMLID_123_" class="st0" d="M177.7,115.7c0,0.1-0.1,0.2-0.2,0.2h-0.6c-0.1,0-0.2-0.1-0.2-0.2v-4c0-0.6-0.3-1.3-1.4-1.3
			c-1.1,0-1.2,0.4-1.2,0.8v4.5c0,0.1-0.1,0.2-0.2,0.2h-0.6c-0.1,0-0.2-0.1-0.2-0.2v-4.8c0-0.4,0.1-0.5,0.4-0.7
			c0.3-0.2,0.9-0.3,1.7-0.3c1,0,2.3,0.3,2.3,1.7V115.7z"/>
	</g>
	<g id="XMLID_7_">
		<rect id="XMLID_8_" x="0.1" y="111.8" class="st0" width="8.8" height="0.9"/>
	</g>
	<g id="XMLID_1_">
		<rect id="XMLID_2_" x="181.2" y="111.8" class="st0" width="8.8" height="0.9"/>
	</g>
</g>
</svg>
